<svg xmlns="http://www.w3.org/2000/svg" width="512" height="512" xml:space="preserve"><g fill="#939598"><path d="M477.388 262.342c0 24.115-12.229 45.053-19.295 66.811-7.322 22.552-15.946 42.287-29.606 61.058-13.798 18.96-29.438 33.993-48.397 47.791-18.771 13.661-34.353 34.643-56.903 41.964-21.759 7.065-46.595-4.605-70.708-4.605-24.114 0-49.756 14.151-71.515 7.086-22.552-7.321-39.877-27.28-58.648-40.941-18.958-13.797-40.887-25.903-54.685-44.863-13.661-18.771-26.565-40.678-33.888-63.229-7.064-21.759 3.755-46.955 3.755-71.07 0-24.113-1.258-46.206 5.807-67.965 7.323-22.552 7.05-50.194 20.711-68.966 13.797-18.958 43.721-22.417 62.679-36.215 18.771-13.66 37.693-21.229 60.245-28.552 21.759-7.064 41.424-33.065 65.539-33.065 24.113 0 48.413 11.726 70.172 18.79 22.551 7.323 46.59 15.768 65.361 29.429 18.959 13.797 32.495 35.483 46.293 54.442 13.66 18.771 35.929 36.42 43.251 58.972 7.064 21.757-.168 49.015-.168 73.128z"/><path d="M477.388 262.342c0 24.115-12.229 45.053-19.295 66.811-7.322 22.552-15.946 42.287-29.606 61.058-13.798 18.96-29.438 33.993-48.397 47.791-18.771 13.661-34.353 34.643-56.903 41.964-21.759 7.065-46.595-4.605-70.708-4.605-24.114 0-49.756 14.151-71.515 7.086-22.552-7.321-39.877-27.28-58.648-40.941-18.958-13.797-40.887-25.903-54.685-44.863-13.661-18.771-26.565-40.678-33.888-63.229-7.064-21.759 3.755-46.955 3.755-71.07 0-24.113-1.258-46.206 5.807-67.965 7.323-22.552 7.05-50.194 20.711-68.966 13.797-18.958 43.721-22.417 62.679-36.215 18.771-13.66 37.693-21.229 60.245-28.552 21.759-7.064 41.424-33.065 65.539-33.065 24.113 0 48.413 11.726 70.172 18.79 22.551 7.323 46.59 15.768 65.361 29.429 18.959 13.797 32.495 35.483 46.293 54.442 13.66 18.771 35.929 36.42 43.251 58.972 7.064 21.757-.168 49.015-.168 73.128z"/></g><g fill="#D1D3D4"><path d="M240.453 139.988c6.981 14.512-4.344 36.588-28.99 48.444-24.646 11.854-52.53 8.639-59.51-5.873-6.98-14.512 8.813-36.428 33.459-48.283 24.647-11.855 48.061-8.799 55.041 5.712z"/><path d="M240.453 139.988c6.981 14.512-4.344 36.588-28.99 48.444-24.646 11.854-52.53 8.639-59.51-5.873-6.98-14.512 8.813-36.428 33.459-48.283 24.647-11.855 48.061-8.799 55.041 5.712z"/></g><g fill="#D1D3D4"><path d="M89.075 311.207c-9.438-4.591-12.583-20.455-4.784-36.484 7.798-16.029 23.348-25.666 32.786-21.074 9.437 4.592 10.232 22.182 2.435 38.21-7.798 16.028-21 23.94-30.437 19.348z"/><path d="M89.075 311.207c-9.438-4.591-12.583-20.455-4.784-36.484 7.798-16.029 23.348-25.666 32.786-21.074 9.437 4.592 10.232 22.182 2.435 38.21-7.798 16.028-21 23.94-30.437 19.348z"/></g><g fill="#D1D3D4"><path d="M218.717 385.482c-.645-10.477 11.622-21.016 29.414-22.109 17.79-1.092 33.83 7.707 34.473 18.183.644 10.476-14.28 19.819-32.07 20.913-17.793 1.093-31.174-6.512-31.817-16.987z"/><path d="M218.717 385.482c-.645-10.477 11.622-21.016 29.414-22.109 17.79-1.092 33.83 7.707 34.473 18.183.644 10.476-14.28 19.819-32.07 20.913-17.793 1.093-31.174-6.512-31.817-16.987z"/></g><g fill="#D1D3D4"><path d="M375.456 285.105c-16.026-8.951-19.945-36.964-4.738-64.185 15.206-27.218 43.316-42.51 59.345-33.553 16.025 8.951 15.67 39.746.467 66.967-15.21 27.219-39.049 39.726-55.074 30.771z"/><path d="M375.456 285.105c-16.026-8.951-19.945-36.964-4.738-64.185 15.206-27.218 43.316-42.51 59.345-33.553 16.025 8.951 15.67 39.746.467 66.967-15.21 27.219-39.049 39.726-55.074 30.771z"/></g><g fill="#D1D3D4"><path d="M271.893 75.559c20.109 3.976 75.581 18.409 90.57 37.202a7.257 7.257 0 0 0 5.689 2.737 7.27 7.27 0 0 0 5.678-11.804c-20.987-26.315-91.184-40.832-99.119-42.401a7.272 7.272 0 0 0-8.542 5.724 7.272 7.272 0 0 0 5.724 8.542zM115.135 116.075c-17.356 5.223-40.066 45.448-44.442 53.46a7.268 7.268 0 0 0 2.895 9.864 7.232 7.232 0 0 0 3.479.893 7.271 7.271 0 0 0 6.387-3.785C94.69 155.95 111.601 132.324 119.325 130a7.271 7.271 0 0 0-4.19-13.925zM296.404 238.013a7.27 7.27 0 0 0-9.944 2.617c-5.833 10-12.908 18.568-20.291 25.822l-18.345 15.299c-16.887 11.991-31.314 17.351-31.602 17.455a7.272 7.272 0 0 0 4.932 13.681c2.067-.745 50.928-18.749 77.867-64.931a7.27 7.27 0 0 0-2.617-9.943zM391.22 365.869a7.27 7.27 0 0 0-9.299-4.387c-37.603 13.499-81.884 68.464-83.75 70.797a7.271 7.271 0 0 0 11.355 9.084c.432-.539 43.536-54.071 77.309-66.195a7.27 7.27 0 0 0 4.385-9.299zM194.176 444.202c-27.386-13.693-53.228-54.231-53.564-54.763a7.27 7.27 0 0 0-12.3 7.755c1.14 1.809 28.282 44.474 59.36 60.014a7.27 7.27 0 0 0 9.755-3.251 7.271 7.271 0 0 0-3.251-9.755z"/></g></svg>